Coordinates
version=1
nRows=27
nColumns=12
inDegrees=yes

Units are S.I. units (second, meters, Newtons, ...)
Angles are in degrees

endheader
time	SC_y	SC_z	SC_x	AC_y	AC_z	AC_x	GH_y	GH_z	GH_yy	EL_x	PS_y
       0.0              -16.54           9.25          11.61           57.5         -5.717          10.85         -174.7          28.55         -69.21          6.518          38.92
   0.02391              -16.54          9.251          11.62           57.5         -5.714          10.85         -174.7          28.56         -69.21          6.518          38.93
   0.04782              -16.54          9.253          11.63          57.51         -5.712          10.85         -174.7          28.57         -69.22          6.518          38.95
   0.07173              -16.55          9.254          11.64          57.51          -5.71          10.85         -174.7          28.57         -69.23          6.518          38.96
   0.09564              -16.55          9.256          11.65          57.51         -5.707          10.85         -174.7          28.58         -69.23          6.518          38.98
    0.1196              -16.55          9.258          11.66          57.51         -5.704          10.85         -174.7          28.59         -69.24          6.518           39.0
    0.1435              -16.55           9.26          11.67          57.52         -5.701          10.86         -174.6           28.6         -69.24          6.517          39.02
    0.1674              -16.56          9.262          11.68          57.52         -5.698          10.86         -174.6          28.61         -69.25          6.517          39.04
    0.1913              -16.56          9.264           11.7          57.52         -5.695          10.86         -174.6          28.62         -69.26          6.517          39.06
    0.2152              -16.56          9.266          11.71          57.52         -5.691          10.86         -174.6          28.63         -69.27          6.517          39.08
    0.2391              -16.57          9.269          11.73          57.53         -5.687          10.86         -174.6          28.64         -69.28          6.517          39.11
     0.263              -16.57          9.272          11.74          57.53         -5.683          10.86         -174.6          28.65         -69.29          6.517          39.13
    0.2869              -16.57          9.275          11.76          57.53         -5.679          10.86         -174.5          28.67          -69.3          6.517          39.16
    0.3108              -16.58          9.278          11.78          57.54         -5.674          10.86         -174.5          28.68         -69.31          6.517          39.19
    0.3347              -16.58          9.281           11.8          57.54         -5.669          10.86         -174.5           28.7         -69.32          6.517          39.23
    0.3587              -16.59          9.285          11.82          57.55         -5.663          10.86         -174.5          28.72         -69.33          6.517          39.27
    0.3826              -16.59          9.289          11.85          57.55         -5.657          10.86         -174.4          28.74         -69.35          6.517          39.31
    0.4065               -16.6          9.294          11.88          57.56          -5.65          10.87         -174.4          28.76         -69.36          6.517          39.35
    0.4304              -16.61          9.299           11.9          57.56         -5.643          10.87         -174.4          28.78         -69.38          6.517           39.4
    0.4543              -16.61          9.304          11.94          57.57         -5.635          10.87         -174.3           28.8          -69.4          6.516          39.45
    0.4782              -16.62           9.31          11.97          57.58         -5.626          10.87         -174.3          28.83         -69.42          6.516          39.51
    0.5021              -16.63          9.316          12.01          57.59         -5.616          10.87         -174.2          28.86         -69.44          6.516          39.57
     0.526              -16.64          9.323          12.05           57.6         -5.605          10.87         -174.2          28.89         -69.46          6.516          39.64
    0.5499              -16.65          9.331           12.1          57.61         -5.594          10.88         -174.1          28.93         -69.49          6.516          39.72
    0.5738              -16.66           9.34          12.15          57.62          -5.58          10.88         -174.1          28.97         -69.52          6.516           39.8
    0.5978              -16.67           9.35          12.21          57.63         -5.566          10.88         -174.0          29.02         -69.56          6.516           39.9
    0.6217              -16.69          9.361          12.28          57.64         -5.549          10.89         -173.9          29.07         -69.59          6.515          40.01
